<?xml version="1.0" standalone="no"?>
<!DOCTYPE svg PUBLIC "-//W3C//DTD SVG 20010904//EN"
 "http://www.w3.org/TR/2001/REC-SVG-20010904/DTD/svg10.dtd">
<svg version="1.0" xmlns="http://www.w3.org/2000/svg"
 width="256.000000pt" height="256.000000pt" viewBox="0 0 256.000000 256.000000"
 preserveAspectRatio="xMidYMid meet">
<metadata>
Created by potrace 1.14, written by Peter Selinger 2001-2017
</metadata>
<g transform="translate(0.000000,256.000000) scale(0.100000,-0.100000)"
fill="#000000" stroke="none">
<path d="M0 1280 l0 -1281 678 3 677 3 0 27 c1 15 3 30 7 33 3 3 5 -10 3 -29
l-2 -35 64 2 c34 1 63 6 63 12 0 5 5 3 10 -5 8 -13 13 -13 31 -2 11 8 19 9 15
4 -9 -14 231 -9 246 6 6 6 19 12 27 12 11 0 11 -3 -3 -13 -16 -12 -16 -14 -2
-14 9 0 17 4 17 9 1 4 2 13 3 20 0 6 7 13 15 16 9 3 11 0 6 -8 -6 -9 -3 -9 14
-1 11 7 21 16 21 21 0 4 3 17 6 27 6 16 5 16 -9 -2 -15 -18 -16 -18 -17 -2 0
9 -5 17 -10 17 -7 0 -7 -6 0 -19 13 -26 13 -27 -10 -27 -11 0 -20 6 -20 14 0
7 4 11 9 8 5 -4 6 5 2 21 -7 26 -31 45 -31 24 0 -6 5 -11 10 -11 6 0 10 -5 10
-11 0 -15 -18 -1 -31 24 -7 12 -8 19 -4 15 4 -4 21 2 36 13 16 11 29 16 29 10
0 -5 -6 -14 -14 -18 -12 -7 -12 -10 1 -22 12 -11 14 -11 12 0 -1 8 1 22 6 32
7 17 8 17 29 0 21 -18 21 -18 3 4 -12 14 -15 23 -7 28 5 3 8 11 5 16 -4 5 -1
9 4 9 6 0 11 5 11 11 0 5 -4 7 -10 4 -5 -3 -10 -1 -10 4 0 6 -5 11 -11 11 -6
0 -7 -5 -2 -12 10 -18 13 -43 3 -32 -15 16 -22 54 -10 54 6 0 8 6 5 13 -4 6 0
4 8 -5 20 -25 30 -23 17 3 -8 13 -8 24 -2 32 15 17 13 29 -6 51 -9 11 -11 16
-4 12 6 -4 12 -3 12 2 0 15 -26 33 -35 24 -4 -4 -2 3 4 16 7 12 16 20 20 17 5
-3 11 1 14 8 3 9 -2 13 -16 11 -12 -1 -26 -3 -30 -3 -5 -1 -6 -5 -3 -10 4 -5
-3 -7 -14 -4 -16 4 -19 2 -14 -11 3 -9 2 -16 -3 -16 -18 0 -10 33 9 38 10 2
16 8 13 12 -9 15 14 21 34 10 16 -8 22 -7 29 7 8 13 10 10 9 -15 -1 -18 -5
-32 -10 -32 -4 0 -5 -6 0 -12 10 -17 11 -118 1 -112 -4 3 -8 0 -8 -5 0 -6 4
-11 8 -11 4 0 8 -33 7 -73 0 -61 -3 -73 -17 -73 -9 0 -14 4 -12 8 3 4 0 8 -5
8 -6 0 -11 -7 -11 -15 0 -9 6 -15 13 -14 28 3 33 -3 36 -46 2 -44 1 -45 -24
-41 -14 3 -23 1 -20 -5 3 -5 -1 -6 -9 -3 -9 3 -16 2 -16 -3 0 -5 9 -9 20 -10
11 -1 20 3 20 8 0 6 7 6 19 -1 13 -6 137 -10 335 -10 l316 0 0 1280 0 1280
-336 0 c-224 0 -333 -3 -329 -10 4 -6 10 -8 14 -6 4 3 7 -8 7 -24 0 -24 -2
-27 -13 -18 -8 6 -12 17 -9 24 10 27 -23 33 -197 32 -129 0 -175 -3 -170 -12
5 -7 2 -7 -8 1 -12 9 -194 12 -767 13 l-752 0 0 -1280z m1441 1247 c-10 -9
-11 -8 -5 6 3 10 9 15 12 12 3 -3 0 -11 -7 -18z m429 12 c0 -3 -12 -11 -27
-18 -25 -10 -26 -10 -10 3 13 10 15 15 5 19 -7 3 -3 4 10 4 12 -1 22 -4 22 -8z
m10 -23 c0 -2 -7 -7 -16 -10 -8 -3 -12 -2 -9 4 6 10 25 14 25 6z m-230 -10 c0
-3 -4 -8 -10 -11 -5 -3 -10 -1 -10 4 0 6 5 11 10 11 6 0 10 -2 10 -4z m230
-21 c-7 -9 -15 -13 -19 -10 -3 3 1 10 9 15 21 14 24 12 10 -5z m35 -36 c1 -16
-4 -25 -11 -22 -15 5 -15 50 0 50 6 0 11 -13 11 -28z m-285 11 c0 -5 -2 -10
-4 -10 -3 0 -8 5 -11 10 -3 6 -1 10 4 10 6 0 11 -4 11 -10z m285 -60 c3 -6 -1
-7 -9 -4 -18 7 -21 14 -7 14 6 0 13 -4 16 -10z m-102 -40 c3 -12 1 -18 -5 -14
-6 4 -9 1 -6 -7 3 -8 14 -14 26 -14 11 0 23 -3 26 -6 3 -3 -12 -5 -34 -5 -41
2 -41 -11 0 -19 13 -2 28 -9 34 -15 13 -13 59 -13 51 -1 -3 5 -2 12 3 15 4 2
9 -9 10 -26 2 -27 0 -29 -13 -18 -13 11 -15 9 -12 -11 2 -12 9 -25 15 -27 14
-4 6 -22 -9 -22 -6 0 -8 4 -4 9 3 5 1 12 -5 16 -6 4 -7 12 -4 18 4 7 3 8 -2 4
-5 -5 -9 -12 -9 -15 0 -4 -4 -13 -9 -21 -6 -9 -5 -12 1 -8 6 4 17 -1 24 -10
10 -12 10 -15 1 -9 -7 4 -15 1 -18 -8 -3 -9 -11 -13 -16 -10 -6 4 -5 10 3 15
11 7 10 9 -3 9 -10 0 -18 -6 -19 -12 0 -10 -2 -10 -6 0 -4 10 -8 10 -19 1 -8
-6 -11 -16 -7 -23 4 -7 1 -6 -9 1 -18 15 -29 7 -21 -15 3 -10 1 -13 -4 -7 -14
17 -36 17 -30 1 4 -9 1 -18 -5 -22 -7 -4 -8 -3 -4 4 4 7 4 12 -1 12 -4 0 -9
11 -9 25 -2 29 4 31 22 8 13 -17 14 -17 8 0 -4 10 -1 17 6 17 6 0 9 4 5 9 -3
5 -1 12 4 16 6 3 8 -3 6 -14 -4 -19 17 -23 32 -6 4 4 3 5 -4 1 -6 -3 -14 -2
-18 4 -5 9 15 15 38 11 4 0 7 4 7 9 0 6 -11 8 -26 4 -24 -6 -25 -5 -14 15 15
29 -4 58 -26 40 -16 -13 -18 -1 -5 20 6 9 14 10 22 5 8 -5 19 -9 24 -9 6 -1 9
-7 7 -15 -3 -11 0 -11 15 0 28 22 29 24 10 17 -10 -4 -16 -3 -13 1 2 4 -5 9
-17 9 -12 1 -23 7 -25 13 -2 5 -7 8 -11 6 -4 -3 -8 1 -8 9 0 8 4 12 8 9 12 -7
32 35 25 52 -3 8 -2 13 3 10 5 -3 11 -15 14 -26z m92 20 c3 -5 1 -10 -4 -10
-6 0 -11 5 -11 10 0 6 2 10 4 10 3 0 8 -4 11 -10z m-690 -55 c-11 -9 -40 -34
-65 -58 -24 -23 -38 -33 -30 -22 28 39 92 94 110 94 3 0 -4 -6 -15 -14z m143
-15 c53 -38 55 -47 2 -13 -22 15 -56 28 -77 30 -51 5 -55 13 -6 13 29 0 52 -9
81 -30z m556 12 c3 -5 -1 -9 -9 -9 -8 0 -12 4 -9 9 3 4 7 8 9 8 2 0 6 -4 9 -8z
m-460 -133 c16 -27 25 -53 22 -56 -3 -4 -6 -2 -6 3 0 6 -16 36 -35 68 -19 32
-29 53 -22 47 8 -6 26 -34 41 -62z m336 51 c0 -10 -50 -66 -56 -62 -2 1 -11 2
-19 2 -13 0 -14 -4 -5 -22 10 -21 10 -22 -4 -5 -18 23 -11 48 11 40 12 -5 14
-3 8 7 -6 10 -4 12 8 7 13 -5 17 -1 17 14 0 15 4 19 16 15 12 -5 15 -2 10 9
-3 9 -2 13 4 10 6 -3 10 -10 10 -15z m-560 -12 c-18 -13 -48 -50 -67 -83 -18
-33 -33 -55 -33 -50 0 37 93 155 123 155 5 0 -5 -10 -23 -22z m100 -10 c0 -6
-6 -5 -15 2 -8 7 -15 14 -15 16 0 2 7 1 15 -2 8 -4 15 -11 15 -16z m-230 -18
c-6 -11 -13 -20 -16 -20 -2 0 0 9 6 20 6 11 13 20 16 20 2 0 0 -9 -6 -20z
m281 -52 c30 -58 19 -56 -12 3 -15 27 -23 46 -18 43 5 -3 19 -23 30 -46z
m-320 -25 c-12 -20 -14 -14 -5 12 4 9 9 14 11 11 3 -2 0 -13 -6 -23z m363 -83
c5 -17 4 -20 -2 -10 -5 8 -13 26 -16 40 -5 17 -4 20 2 10 5 -8 13 -26 16 -40z
m95 -30 c0 -9 -4 -8 -9 5 -5 11 -9 27 -9 35 0 9 4 8 9 -5 5 -11 9 -27 9 -35z
m-492 8 c-3 -8 -6 -5 -6 6 -1 11 2 17 5 13 3 -3 4 -12 1 -19z m-337 6 c0 -8
-19 -13 -24 -6 -3 5 1 9 9 9 8 0 15 -2 15 -3z m395 -104 c-13 -52 -24 -86 -24
-75 -1 11 3 36 8 55 6 19 15 55 21 79 6 23 13 41 15 40 2 -2 -7 -47 -20 -99z
m364 40 c0 -9 -4 -8 -9 5 -5 11 -9 27 -9 35 0 9 4 8 9 -5 5 -11 9 -27 9 -35z
m-443 -26 c-8 -32 -15 -51 -15 -41 -1 22 20 109 25 104 3 -2 -2 -30 -10 -63z
m-325 39 c13 -16 12 -17 -3 -4 -16 12 -18 11 -18 -7 0 -15 5 -19 23 -16 18 4
19 3 4 -4 -10 -4 -18 -12 -17 -16 1 -5 -4 -12 -10 -16 -8 -5 -7 -9 5 -13 9 -4
13 -3 10 3 -3 6 -1 10 4 10 6 0 11 -5 11 -11 0 -5 5 -7 10 -4 6 3 10 1 10 -4
0 -6 3 -10 8 -9 10 2 116 -29 189 -57 43 -16 63 -19 67 -11 2 6 5 3 5 -6 1
-21 -3 -22 -28 -9 -37 20 -250 80 -307 86 -66 8 -83 15 -36 15 18 0 32 3 33 8
4 39 16 82 22 82 3 0 11 -8 18 -17z m846 -5 c-3 -8 -6 -5 -6 6 -1 11 2 17 5
13 3 -3 4 -12 1 -19z m10 -50 c-3 -7 -5 -2 -5 12 0 14 2 19 5 13 2 -7 2 -19 0
-25z m-69 -43 c0 -16 -2 -15 -8 5 -4 14 -8 34 -8 45 0 16 2 15 8 -5 4 -14 8
-34 8 -45z m-898 27 c0 -4 -23 -8 -50 -9 -88 -4 -127 -20 -160 -65 -34 -47
-38 -89 -15 -145 8 -20 14 -38 11 -40 -7 -8 -36 78 -36 108 0 17 12 50 26 74
32 56 79 75 197 82 15 1 27 -2 27 -5z m995 -99 c3 -7 25 -3 72 14 88 32 242
70 317 78 71 8 183 -10 211 -33 31 -26 65 -90 65 -120 -1 -15 -8 -40 -16 -57
-8 -16 -12 -21 -8 -10 16 55 15 83 -4 121 -29 58 -50 72 -124 84 -104 16 -242
-6 -423 -68 -72 -25 -80 -30 -85 -57 -5 -25 -7 -21 -13 26 -4 30 -9 71 -12 90
-2 20 0 16 6 -11 6 -25 12 -50 14 -57z m-578 35 c-3 -7 -5 -2 -5 12 0 14 2 19
5 13 2 -7 2 -19 0 -25z m490 -20 c-3 -7 -5 -2 -5 12 0 14 2 19 5 13 2 -7 2
-19 0 -25z m-805 -13 c90 -16 221 -55 267 -80 14 -8 22 -14 16 -15 -5 0 -23 7
-38 15 -16 8 -38 16 -50 17 -12 2 -27 6 -32 10 -6 3 -28 9 -50 13 -22 4 -48
12 -57 17 -21 10 -23 2 -4 -17 7 -8 17 -11 20 -7 4 3 4 -1 0 -11 -5 -13 -2
-16 10 -11 11 4 16 1 16 -12 0 -16 2 -16 9 -4 6 8 7 18 5 22 -3 4 2 5 11 1 13
-5 14 -8 3 -15 -10 -7 -9 -11 6 -23 17 -13 18 -15 3 -15 -9 0 -17 5 -17 12 0
6 -3 8 -7 4 -8 -8 -9 -13 -12 -42 -1 -11 -7 -15 -22 -11 -25 7 -19 -1 13 -18
14 -6 22 -19 21 -31 -1 -18 -1 -18 11 -2 14 19 28 14 19 -8 -3 -8 5 -16 22
-20 14 -3 24 -9 21 -12 -3 -3 -1 -11 5 -19 18 -21 -3 -15 -29 10 -14 12 -21
15 -16 7 4 -8 10 -23 11 -34 3 -15 1 -16 -11 -7 -10 8 -16 9 -21 1 -4 -6 -3
-9 2 -8 4 2 8 -1 8 -7 0 -5 -2 -9 -5 -8 -3 1 -6 -7 -6 -18 0 -18 2 -18 12 -5
12 18 29 22 19 6 -8 -13 18 -8 27 5 4 5 10 6 15 2 9 -10 -18 -28 -30 -20 -12
7 -4 -30 8 -40 6 -5 3 -7 -7 -4 -22 7 -30 -2 -15 -18 10 -10 18 -8 40 11 16
13 33 24 38 24 6 0 7 5 4 10 -4 6 -11 7 -17 4 -7 -4 -8 -2 -4 5 6 9 11 9 23 0
22 -19 31 3 29 77 -2 43 1 61 8 54 16 -13 9 -400 -7 -400 -7 0 -38 20 -70 44
l-58 44 65 49 c60 44 65 51 66 86 0 36 -1 37 -22 26 -13 -7 -54 -35 -92 -62
-63 -47 -70 -49 -91 -36 -74 46 -251 232 -281 294 -8 17 -9 22 -2 11 49 -73
175 -212 184 -203 2 2 4 55 6 118 1 86 6 117 16 125 12 9 13 12 2 19 -9 5 -11
4 -6 -3 4 -7 2 -12 -3 -12 -6 0 -10 11 -9 25 2 22 4 23 18 10 19 -18 33 -19
28 -4 -2 6 -7 10 -11 9 -12 -1 -39 29 -33 38 22 36 -114 56 -174 25 -33 -17
-35 -21 -35 -70 1 -29 -3 -47 -7 -40 -10 15 -10 78 0 94 14 23 67 43 112 43
25 0 84 -7 132 -15z m385 -17 c-3 -7 -5 -2 -5 12 0 14 2 19 5 13 2 -7 2 -19 0
-25z m936 25 c-13 -2 -35 -2 -50 0 -16 2 -5 4 22 4 28 0 40 -2 28 -4z m-96 -9
c-3 -3 -12 -4 -19 -1 -8 3 -5 6 6 6 11 1 17 -2 13 -5z m201 -14 c27 -16 32
-26 32 -57 0 -46 -30 -108 -76 -159 l-35 -39 37 50 c86 117 85 188 -2 215 -21
6 -23 9 -9 9 11 1 35 -8 53 -19z m-608 -14 c0 -21 -13 -31 -96 -70 -116 -55
-332 -173 -356 -194 -14 -12 -18 -33 -20 -96 -1 -62 -3 -69 -6 -31 -4 48 16
305 24 305 12 0 144 -64 140 -67 -3 -3 -30 7 -61 21 -60 27 -74 27 -73 -2 0
-9 -2 -31 -6 -48 -4 -21 -2 -31 7 -31 6 0 21 -4 31 -9 14 -5 17 -4 12 5 -4 6
-4 11 1 10 20 -3 34 2 28 11 -4 6 1 7 12 3 16 -6 17 -5 3 13 -14 17 -14 18 1
6 14 -10 26 -7 73 20 30 18 56 35 56 38 0 3 -44 25 -97 49 -54 25 -102 48
-108 53 -14 13 67 -20 155 -62 l74 -37 98 46 c81 38 98 50 98 69 0 12 2 22 5
22 3 0 5 -11 5 -24z m367 18 c-3 -3 -12 -4 -19 -1 -8 3 -5 6 6 6 11 1 17 -2
13 -5z m-67 -18 c0 -3 -17 -10 -37 -16 -21 -6 -68 -23 -105 -37 l-68 -25 7
-76 c3 -42 4 -75 1 -72 -3 3 -8 39 -12 81 -6 68 -5 77 11 82 10 3 56 19 103
36 87 31 100 34 100 27z m-293 -68 c-3 -7 -5 -2 -5 12 0 14 2 19 5 13 2 -7 2
-19 0 -25z m-664 -37 c-10 -10 -20 -18 -23 -18 -25 -2 -30 -4 -26 -12 9 -14
34 -7 52 15 15 18 15 18 5 -3 -7 -14 -8 -24 -1 -28 5 -3 10 2 10 11 0 24 13 9
15 -18 2 -31 21 -34 21 -3 0 14 -3 25 -7 25 -4 0 -9 6 -12 13 -3 8 1 14 9 14
7 0 11 -4 9 -8 -7 -10 20 -30 36 -26 8 2 11 2 6 0 -4 -3 -5 -8 -3 -12 3 -4 1
-13 -5 -21 -6 -10 -9 -11 -9 -2 0 6 -4 12 -10 12 -16 0 -7 -24 15 -37 11 -7
14 -12 7 -13 -7 0 -11 -4 -8 -8 2 -4 -7 -8 -22 -7 -21 0 -27 5 -26 22 1 17 -4
22 -20 20 -11 -1 -20 3 -19 10 1 6 -4 17 -12 23 -8 7 -15 9 -15 5 0 -4 -7 -2
-15 5 -18 15 -2 52 19 44 8 -3 17 -1 21 5 3 6 10 11 16 11 5 0 1 -8 -8 -19z
m127 -28 c0 -29 -4 -43 -9 -35 -7 11 -7 34 -2 75 1 4 3 7 6 7 3 0 5 -21 5 -47z
m549 -11 l-2 -37 -6 36 -6 36 -58 -27 -57 -28 61 -36 c33 -20 62 -36 64 -36 2
0 6 8 8 18 3 10 5 6 6 -11 l1 -29 -32 20 c-18 11 -55 32 -82 47 l-49 28 69 32
c38 18 72 31 77 28 4 -2 6 -21 6 -41z m-579 28 c0 -5 -8 -10 -17 -10 -15 0
-16 2 -3 10 19 12 20 12 20 0z m154 -18 c3 -5 -1 -9 -9 -9 -8 0 -12 4 -9 9 3
4 7 8 9 8 2 0 6 -4 9 -8z m1091 -46 c-15 -25 -31 -48 -36 -51 -5 -3 6 19 24
49 17 30 34 53 35 51 2 -2 -8 -24 -23 -49z m-1761 -36 c27 -40 29 -46 9 -23
-15 17 -37 46 -47 65 -26 45 -8 25 38 -42z m649 45 c-3 -9 -8 -14 -10 -11 -3
3 -2 9 2 15 9 16 15 13 8 -4z m262 -15 c-3 -5 -12 -10 -18 -10 -7 0 -6 4 3 10
19 12 23 12 15 0z m-235 -4 c0 -2 -7 -7 -16 -10 -8 -3 -12 -2 -9 4 6 10 25 14
25 6z m407 -134 c15 -12 -1 -4 -37 17 -86 50 -166 91 -181 91 -17 0 -174 -89
-199 -112 -11 -10 -20 -15 -20 -11 0 4 -7 -1 -15 -11 -8 -11 -15 -15 -15 -9 0
18 34 42 144 102 l107 59 94 -52 c52 -28 107 -62 122 -74z m-632 67 c9 15 28
14 23 -1 -3 -7 -10 -13 -15 -13 -6 0 -15 -3 -19 -7 -14 -15 -22 -8 -20 17 1
22 3 23 13 10 7 -11 13 -12 18 -6z m1090 -60 c-39 -39 -87 -84 -108 -101 l-38
-30 -40 28 c-22 15 -43 32 -46 38 -4 5 14 -5 40 -24 55 -39 39 -46 172 82 44
43 82 78 85 78 2 0 -27 -32 -65 -71z m148 37 c-15 -19 -32 -35 -37 -35 -6 -1
5 15 24 34 43 45 50 45 13 1z m-1458 -174 l49 -43 -44 -37 c-79 -65 -179 -164
-222 -221 -56 -74 -65 -83 -42 -41 10 19 74 90 140 157 107 108 121 126 116
149 -3 17 -40 62 -97 118 -58 58 -66 67 -21 26 39 -36 93 -85 121 -108z m998
133 c20 -14 37 -28 37 -31 0 -3 -12 3 -27 14 -16 10 -37 24 -48 30 -11 6 -15
12 -10 12 6 0 27 -11 48 -25z m-439 -14 c-44 -20 -94 -76 -94 -105 0 -9 -5
-14 -10 -11 -7 4 -7 13 0 26 7 13 7 19 0 19 -5 0 -10 4 -10 9 0 5 7 8 16 7 9
0 19 5 22 13 3 9 0 11 -8 6 -9 -5 -11 -4 -6 4 4 6 11 9 16 6 5 -3 15 2 24 10
17 17 53 34 76 34 8 0 -4 -8 -26 -18z m157 -4 c40 -27 79 -82 79 -111 -1 -14
-6 -8 -14 17 -18 50 -42 76 -91 98 -22 10 -33 19 -24 19 9 0 31 -10 50 -23z
m670 -21 c-18 -18 -58 -55 -90 -81 l-58 -48 126 -126 c113 -113 178 -198 196
-256 4 -11 -8 6 -26 38 -51 91 -159 211 -278 310 l-34 29 48 41 c27 23 70 61
95 84 54 51 67 56 21 9z m-937 8 c3 -8 2 -12 -4 -9 -6 3 -10 10 -10 16 0 14 7
11 14 -7z m-23 -21 c13 -16 12 -17 -3 -4 -10 7 -18 15 -18 17 0 8 8 3 21 -13z
m458 -145 c0 -90 -3 -158 -5 -151 -4 8 -29 -3 -74 -32 -60 -39 -350 -185 -391
-198 -11 -4 -14 -14 -11 -41 4 -32 7 -36 26 -30 23 7 285 140 326 166 14 8 46
27 73 42 l47 27 -1 -38 c-2 -30 -3 -32 -6 -10 -2 15 -6 27 -8 27 -2 0 -32 -17
-67 -37 l-63 -37 60 -28 60 -28 6 32 6 33 2 -37 c0 -21 -4 -38 -9 -38 -6 0
-37 13 -70 30 l-59 30 -43 -20 -43 -19 103 -48 102 -47 -1 -36 -2 -35 -6 34
c-6 31 -13 37 -104 79 l-98 45 -107 -51 c-59 -29 -112 -52 -118 -52 -12 0 -24
55 -23 100 0 19 2 21 7 8 6 -15 14 -13 77 13 38 17 71 31 72 33 2 2 -140 87
-162 95 -7 3 -7 0 0 -10 6 -8 8 -31 4 -54 l-6 -40 -2 42 c0 23 -4 48 -7 57
-11 28 19 18 104 -35 l82 -50 30 18 c17 9 30 21 30 26 0 5 6 7 13 4 12 -4 101
41 195 100 l52 33 0 145 c0 80 2 145 5 145 3 0 5 -73 4 -162z m142 81 c38 -28
69 -54 69 -59 0 -4 -24 -25 -52 -47 -61 -46 -78 -56 -78 -49 0 3 26 23 58 46
31 23 57 45 57 50 0 5 -31 32 -70 60 -38 27 -66 50 -61 50 5 0 39 -23 77 -51z
m-664 -81 c-3 -8 -6 -5 -6 6 -1 11 2 17 5 13 3 -3 4 -12 1 -19z m428 -15 c-3
-16 -10 -32 -15 -37 -5 -5 -4 7 2 27 13 43 23 50 13 10z m-317 -16 c15 -43 50
-75 99 -92 21 -8 30 -14 20 -15 -25 0 -68 23 -93 52 -27 28 -58 88 -46 88 4 0
13 -15 20 -33z m-265 -62 l95 -65 4 -74 c2 -41 0 -72 -4 -69 -5 2 -8 34 -8 71
l0 67 -70 48 c-39 26 -75 47 -79 47 -5 0 -11 7 -15 15 -6 16 -36 21 -36 7 0
-5 -12 -14 -26 -21 -18 -8 -24 -16 -19 -28 3 -10 3 -14 -1 -11 -4 4 -15 3 -26
-3 -16 -9 -17 -13 -6 -27 12 -15 11 -16 -4 -4 -15 12 -22 8 -60 -30 -24 -23
-63 -65 -87 -93 -24 -27 -34 -36 -23 -19 42 61 240 254 263 254 4 0 50 -29
102 -65z m1061 -26 c52 -50 109 -108 126 -130 17 -21 -25 18 -93 86 -69 69
-130 125 -137 125 -6 0 -55 -31 -109 -70 -54 -38 -101 -70 -105 -70 -3 0 -5
24 -4 53 l2 52 3 -47 4 -47 67 46 c37 26 81 57 97 70 17 12 35 23 41 23 7 0
55 -41 108 -91z m-856 -21 c20 -14 72 -44 115 -68 43 -23 76 -44 73 -47 -4 -4
-98 47 -193 106 -35 22 -42 31 -41 56 1 29 1 29 5 3 3 -16 18 -35 41 -50z
m322 42 c-19 -17 -38 -30 -44 -30 -9 0 64 58 74 59 3 0 -11 -13 -30 -29z m-63
-36 c-3 -3 -12 -4 -19 -1 -8 3 -5 6 6 6 11 1 17 -2 13 -5z m270 -201 c-2 -16
-4 -5 -4 22 0 28 2 40 4 28 2 -13 2 -35 0 -50z m518 -6 c45 -77 27 -146 -41
-163 -26 -7 -180 1 -219 10 -64 16 -167 47 -215 63 -40 14 -55 25 -56 39 -1
13 0 14 3 3 4 -18 155 -68 287 -95 100 -20 206 -16 235 10 29 26 27 79 -4 133
-14 23 -24 43 -21 43 3 0 17 -20 31 -43z m-1755 -28 c-11 -24 -20 -59 -20 -77
0 -67 52 -127 122 -138 21 -4 38 -10 38 -14 0 -9 -74 6 -101 21 -28 14 -69 91
-69 128 0 31 38 136 47 128 2 -2 -6 -24 -17 -48z m607 -6 c-3 -10 -5 -2 -5 17
0 19 2 27 5 18 2 -10 2 -26 0 -35z m-515 5 c-7 -7 -12 -33 -12 -58 0 -45 2
-48 39 -64 27 -13 57 -17 100 -14 33 1 61 0 61 -4 0 -16 -135 -8 -170 10 -32
15 -35 21 -38 64 -3 45 13 96 26 84 3 -4 0 -12 -6 -18z m1787 -72 c1 -40 -43
-112 -82 -133 -43 -24 -238 -23 -312 1 -51 16 -46 16 80 -5 83 -13 197 -5 235
17 43 26 74 93 67 145 -4 29 -3 37 3 24 5 -11 9 -33 9 -49z m-1262 19 c0 -8
-4 -12 -9 -9 -5 3 -41 -6 -81 -20 -76 -26 -197 -56 -225 -56 -9 1 33 14 93 30
84 22 213 62 221 69 0 1 1 -6 1 -14z m687 -88 c33 -12 54 -23 49 -24 -6 -2
-38 7 -71 21 -55 22 -61 22 -65 8 -3 -11 -5 -9 -6 7 -1 18 3 22 17 16 9 -4 44
-17 76 -28z m-677 -13 c-4 -16 -5 -15 -6 3 l-1 22 -47 -20 c-25 -11 -51 -18
-56 -16 -6 2 14 12 44 23 57 22 74 18 66 -12z m80 -1 c-3 -10 -5 -4 -5 12 0
17 2 24 5 18 2 -7 2 -21 0 -30z m403 -110 c-22 -87 -69 -217 -76 -210 -2 2 7
30 20 63 14 33 35 104 48 157 12 54 24 93 26 88 2 -6 -6 -50 -18 -98z m95 57
c-4 -23 -9 -39 -11 -37 -3 2 -2 23 2 46 4 23 9 40 11 37 3 -3 2 -23 -2 -46z
m-754 20 c-88 -32 -284 -60 -294 -43 -3 5 22 9 56 10 66 2 196 25 237 42 14 5
32 10 40 10 8 0 -9 -9 -39 -19z m964 10 c13 -5 14 -9 5 -9 -8 0 -24 4 -35 9
-13 5 -14 9 -5 9 8 0 24 -4 35 -9z m-778 -32 c-3 -7 -5 -2 -5 12 0 14 2 19 5
13 2 -7 2 -19 0 -25z m91 -33 c0 -16 -2 -15 -8 5 -4 14 -8 34 -8 45 0 16 2 15
8 -5 4 -14 8 -34 8 -45z m-81 -17 c-3 -7 -5 -2 -5 12 0 14 2 19 5 13 2 -7 2
-19 0 -25z m533 -58 c-7 -28 -14 -49 -16 -47 -3 2 1 27 8 55 6 29 13 50 16 47
2 -2 -1 -27 -8 -55z m-376 -155 c5 -13 2 -11 -8 5 -17 27 -66 173 -65 193 0 7
15 -31 33 -83 18 -52 36 -104 40 -115z m-147 173 c-3 -8 -6 -5 -6 6 -1 11 2
17 5 13 3 -3 4 -12 1 -19z m10 -40 c-3 -8 -6 -5 -6 6 -1 11 2 17 5 13 3 -3 4
-12 1 -19z m39 -125 c-5 -5 -36 86 -35 101 0 6 9 -13 20 -43 10 -30 17 -56 15
-58z m798 99 c3 -5 -1 -9 -9 -9 -8 0 -12 4 -9 9 3 4 7 8 9 8 2 0 6 -4 9 -8z
m31 -11 c3 -5 2 -12 -3 -15 -5 -3 -9 1 -9 9 0 17 3 19 12 6z m-385 -48 c-16
-47 -76 -170 -88 -177 -5 -3 8 27 29 67 20 40 43 91 50 115 7 23 14 40 17 38
2 -3 -2 -22 -8 -43z m418 22 c-3 -3 -9 2 -12 12 -6 14 -5 15 5 6 7 -7 10 -15
7 -18z m-74 -15 c-6 -6 -10 -3 -10 10 0 13 4 16 10 10 7 -7 7 -13 0 -20z m53
-2 c-3 -8 -6 -5 -6 6 -1 11 2 17 5 13 3 -3 4 -12 1 -19z m-351 -44 c1 -9 0
-13 -4 -10 -3 4 -7 14 -8 22 -1 9 0 13 4 10 3 -4 7 -14 8 -22z m224 22 c0 -3
-4 -8 -10 -11 -5 -3 -10 -1 -10 4 0 6 5 11 10 11 6 0 10 -2 10 -4z m37 -12
c-3 -3 -12 -4 -19 -1 -8 3 -5 6 6 6 11 1 17 -2 13 -5z m-137 -14 c0 -5 -2 -10
-4 -10 -3 0 -8 5 -11 10 -3 6 -1 10 4 10 6 0 11 -4 11 -10z m37 3 c-4 -3 -1
-13 6 -22 11 -14 10 -14 -5 -2 -16 12 -16 31 -1 31 4 0 3 -3 0 -7z m-610 -75
c17 -32 27 -55 22 -52 -10 6 -59 98 -59 110 0 11 4 5 37 -58z m266 20 c-19
-33 -76 -78 -98 -78 -6 0 -20 7 -31 15 -18 14 -17 15 7 4 35 -15 83 10 111 57
11 19 22 34 25 34 3 0 -4 -15 -14 -32z m-153 -41 c0 -13 -25 16 -39 43 -11 22
-9 21 13 -5 14 -16 25 -34 26 -38z m376 48 c-1 -8 -5 -17 -8 -21 -5 -4 -4 16
1 34 3 9 9 -1 7 -13z m221 -10 c0 -8 -3 -13 -5 -10 -3 3 -10 0 -17 -5 -8 -7
-12 -5 -12 5 0 8 4 12 8 9 4 -2 10 0 14 6 9 14 12 13 12 -5z m-177 -5 c0 -5
-2 -10 -4 -10 -3 0 -8 5 -11 10 -3 6 -1 10 4 10 6 0 11 -4 11 -10z m114 -1 c3
-3 -4 -5 -14 -6 -11 -1 -20 2 -20 7 0 8 25 8 34 -1z m123 -3 c0 -8 -6 -12 -15
-8 -10 3 -13 1 -8 -6 3 -6 2 -13 -4 -17 -5 -3 -10 -11 -10 -16 0 -6 5 -7 10
-4 10 6 14 -6 10 -40 -2 -23 -30 -57 -30 -37 0 22 2 27 10 25 4 -1 10 7 13 17
3 11 2 20 -1 21 -25 3 -45 9 -50 15 -4 4 1 4 12 0 14 -5 17 -2 12 9 -3 9 -2
13 3 10 5 -3 12 -1 16 5 3 5 1 10 -6 10 -7 0 -4 7 7 15 24 18 31 19 31 1z
m-122 -36 c-5 -16 -3 -19 12 -14 15 5 16 4 3 -5 -11 -8 -18 -7 -26 4 -6 8 -15
11 -19 7 -5 -4 -5 -1 -1 6 4 7 12 10 17 7 5 -4 9 -1 9 4 0 6 3 11 6 11 3 0 3
-9 -1 -20z m137 -22 c-6 -6 -12 -6 -17 3 -5 8 -4 10 3 5 7 -4 12 0 13 11 0 12
2 13 6 5 3 -8 1 -18 -5 -24z m-247 2 c-3 -5 -12 -10 -18 -10 -7 0 -6 4 3 10
19 12 23 12 15 0z m35 6 c0 -3 -4 -8 -10 -11 -5 -3 -10 -1 -10 4 0 6 5 11 10
11 6 0 10 -2 10 -4z m55 -15 c3 -5 2 -12 -3 -15 -5 -3 -9 1 -9 9 0 17 3 19 12
6z m43 -6 c-3 -3 9 -21 26 -40 20 -22 34 -31 40 -25 6 6 13 10 16 10 10 0 -1
-59 -11 -66 -6 -3 -8 6 -5 19 3 19 0 24 -12 23 -9 -2 -18 -8 -20 -14 -2 -8 3
-10 15 -6 17 5 17 5 1 -9 -10 -8 -14 -18 -10 -22 4 -5 2 -5 -5 -1 -6 3 -16 -2
-22 -11 -7 -12 -10 -13 -11 -4 0 11 -3 11 -15 1 -20 -17 -19 -31 3 -23 9 3 14
3 10 -1 -3 -4 -12 -8 -20 -10 -23 -3 -38 -17 -32 -29 4 -7 4 -9 0 -5 -4 3 -7
9 -6 13 0 3 -9 14 -21 24 -17 14 -19 18 -6 18 9 0 14 -4 11 -8 -2 -4 5 -7 16
-6 11 1 20 8 20 16 0 8 -3 11 -6 8 -4 -3 -15 5 -26 18 -12 15 -25 22 -36 19
-14 -5 -14 -3 2 10 11 9 25 16 30 16 6 0 5 -4 -2 -8 -9 -7 -8 -13 8 -27 11
-10 23 -15 28 -10 4 4 1 10 -5 12 -7 3 -13 17 -13 33 0 16 -4 30 -9 32 -5 2 2
11 15 21 13 10 24 13 24 7 0 -5 -5 -10 -11 -10 -6 0 -7 -5 -2 -12 11 -19 13
-39 2 -32 -5 3 -4 -7 1 -21 6 -15 8 -31 4 -36 -10 -17 13 -9 30 10 15 16 15
19 1 31 -8 7 -15 18 -15 24 0 6 5 3 11 -6 8 -15 13 -16 29 -6 10 7 16 16 13
20 -2 5 -12 3 -21 -4 -12 -10 -14 -10 -8 0 4 7 1 12 -8 12 -9 0 -16 5 -16 11
0 5 4 8 9 4 5 -3 12 -1 16 5 3 5 -1 10 -9 10 -9 0 -16 4 -16 8 0 10 11 22 18
22 3 0 3 -2 0 -5z m37 -13 c-3 -3 -11 0 -18 7 -9 10 -8 11 6 5 10 -3 15 -9 12
-12z m-590 -60 c15 -8 16 -11 5 -12 -9 0 -34 19 -55 42 -37 40 -37 40 -5 12
19 -17 44 -36 55 -42z m172 40 c-11 -12 -13 -22 -7 -28 7 -7 2 -10 -12 -11
-13 -1 -34 -4 -48 -8 -20 -5 -19 -3 5 8 17 8 39 24 49 36 11 11 21 21 24 21 3
0 -2 -8 -11 -18z m268 -11 c0 -16 -3 -27 -7 -24 -13 7 -7 53 6 53 1 0 1 -13 1
-29z m41 17 c4 -7 3 -8 -4 -4 -7 4 -12 2 -12 -5 0 -7 -3 -10 -6 -6 -6 5 3 27
11 27 2 0 7 -5 11 -12z m-114 -13 c2 3 5 -1 5 -9 0 -18 -24 -10 -31 11 -5 12
-4 13 7 5 8 -7 16 -10 19 -7z m-49 -5 c-7 -7 -72 -6 -67 1 2 4 19 6 38 5 19 0
32 -3 29 -6z m-3 -24 c0 -2 -8 -10 -17 -17 -16 -13 -17 -12 -4 4 13 16 21 21
21 13z m116 -18 c3 -4 -1 -5 -10 -4 -8 1 -18 5 -22 8 -3 4 1 5 10 4 8 -1 18
-5 22 -8z m-161 -18 c3 -5 1 -10 -4 -10 -6 0 -11 5 -11 10 0 6 2 10 4 10 3 0
8 -4 11 -10z m395 6 c0 -3 -4 -8 -10 -11 -5 -3 -10 -1 -10 4 0 6 5 11 10 11 6
0 10 -2 10 -4z m-535 -46 c3 -5 1 -10 -4 -10 -6 0 -11 5 -11 10 0 6 2 10 4 10
3 0 8 -4 11 -10z m309 -9 c3 -4 -3 -16 -13 -25 -13 -12 -21 -14 -26 -6 -3 6
-1 9 6 8 7 -2 14 3 15 10 3 25 8 29 18 13z m127 -34 c-10 -9 -11 -8 -5 6 3 10
9 15 12 12 3 -3 0 -11 -7 -18z m-431 3 c0 -5 -2 -10 -4 -10 -3 0 -8 5 -11 10
-3 6 -1 10 4 10 6 0 11 -4 11 -10z m341 -23 c7 -12 8 -19 4 -15 -5 4 -15 2
-23 -5 -13 -10 -14 -9 -4 9 8 16 8 24 -1 34 -9 10 -9 11 0 6 7 -4 18 -17 24
-29z m-204 17 c-3 -3 -12 -4 -19 -1 -8 3 -5 6 6 6 11 1 17 -2 13 -5z m-61 -19
c-6 -17 9 -21 19 -5 3 6 12 10 18 10 7 0 6 -4 -3 -10 -13 -9 -13 -10 0 -11 8
-1 18 -1 21 -1 4 1 2 -10 -5 -23 -6 -14 -15 -25 -19 -25 -4 0 -3 9 3 20 8 15
8 20 -2 21 -28 3 -33 4 -35 12 -5 13 -3 27 3 27 3 0 4 -7 0 -15z m324 4 c0 -5
4 -8 9 -4 6 3 15 -4 22 -16 9 -17 8 -23 -2 -30 -22 -14 -35 -10 -15 4 16 12
16 14 -8 27 -26 13 -35 30 -16 30 6 0 10 -5 10 -11z m53 -6 c-4 -10 -2 -14 4
-10 5 3 10 0 10 -8 0 -11 -4 -12 -14 -4 -15 13 -18 39 -3 39 5 0 6 -7 3 -17z
m-468 -13 c-3 -5 -12 -10 -18 -10 -7 0 -6 4 3 10 19 12 23 12 15 0z m390 -29
c2 -11 0 -21 -4 -21 -5 0 -8 11 -8 25 0 30 6 28 12 -4z m-179 7 c4 -6 3 -8 -4
-4 -6 3 -15 -2 -21 -11 -6 -10 -11 -13 -11 -7 0 9 19 34 26 34 2 0 6 -5 10
-12z m-123 -16 c3 -4 -5 -7 -18 -7 -13 0 -21 3 -18 8 6 9 30 9 36 -1z"/>
<path d="M1851 2244 c0 -11 3 -14 6 -6 3 7 2 16 -1 19 -3 4 -6 -2 -5 -13z"/>
<path d="M659 1798 c-7 -27 -3 -40 17 -53 14 -9 29 -13 34 -10 5 3 12 1 15 -5
4 -6 2 -9 -3 -8 -6 2 -9 -1 -8 -7 0 -5 7 -9 14 -7 7 2 12 -1 11 -5 -1 -4 -1
-14 0 -21 1 -19 24 -10 27 11 1 10 -2 14 -9 10 -7 -4 -8 0 -4 11 4 9 3 15 -2
12 -5 -3 -19 8 -32 25 -20 26 -57 56 -60 47z m35 -44 c5 -14 4 -15 -9 -4 -17
14 -19 20 -6 20 5 0 12 -7 15 -16z"/>
<path d="M702 1684 c10 -10 20 -15 24 -12 3 4 -5 12 -18 18 -22 12 -22 12 -6
-6z"/>
<path d="M666 1662 c-3 -5 1 -9 9 -9 8 0 15 4 15 9 0 4 -4 8 -9 8 -6 0 -12 -4
-15 -8z"/>
<path d="M780 1570 c0 -5 -7 -7 -15 -4 -8 4 -15 1 -15 -5 0 -6 6 -10 13 -8 6
1 11 -5 9 -13 -2 -8 0 -12 4 -7 9 9 16 47 9 47 -3 0 -5 -4 -5 -10z"/>
<path d="M803 1453 c-15 -5 -18 -33 -4 -33 13 0 33 28 24 33 -4 2 -14 2 -20 0z"/>
<path d="M792 1394 c2 -10 -3 -19 -11 -22 -9 -3 -11 0 -6 7 5 9 1 8 -14 -1
-12 -7 -17 -14 -11 -16 6 -2 7 -8 4 -14 -3 -5 10 1 29 13 19 13 33 29 30 36
-7 19 -24 16 -21 -3z"/>
<path d="M880 1319 c-44 -29 -55 -46 -35 -51 5 -2 25 -18 45 -35 19 -18 38
-33 41 -33 3 0 6 34 6 75 0 41 -3 75 -6 75 -3 0 -26 -14 -51 -31z"/>
<path d="M1034 1549 c-9 -15 -2 -18 20 -9 17 6 18 7 3 13 -9 3 -19 2 -23 -4z"/>
<path d="M830 1615 c8 -11 15 -21 16 -23 1 -2 5 5 8 15 4 9 4 14 0 10 -4 -4
-14 -1 -23 6 -14 11 -15 10 -1 -8z"/>
<path d="M880 1570 c12 -8 12 -10 1 -10 -8 0 -12 -2 -9 -5 3 -3 13 -2 22 1 14
5 15 9 4 15 -7 5 -17 9 -23 9 -5 0 -3 -5 5 -10z"/>
<path d="M1783 183 c4 -3 1 -13 -6 -22 -11 -14 -10 -14 5 -2 16 12 16 31 1 31
-4 0 -3 -3 0 -7z"/>
<path d="M1880 402 c0 -5 7 -15 15 -22 8 -7 15 -9 15 -6 0 4 -7 14 -15 22 -8
9 -15 11 -15 6z"/>
<path d="M1886 42 c-3 -5 1 -9 9 -9 8 0 15 4 15 9 0 10 -17 10 -24 0z"/>
</g>
</svg>
